<svg version="1.1" id="Layer_1" xmlns="http://www.w3.org/2000/svg" xmlns:xlink="http://www.w3.org/1999/xlink" x="0px" y="0px"
	 width="100%" viewBox="0 0 388 388" enable-background="new 0 0 388 388" xml:space="preserve">
<path fill="#000000" opacity="0" stroke="none" 
	d="
M210.000000,389.000000 
	C140.000015,389.000000 70.500023,389.000000 1.000028,389.000000 
	C1.000019,259.666687 1.000019,130.333405 1.000009,1.000080 
	C130.333267,1.000053 259.666534,1.000053 388.999878,1.000027 
	C388.999908,130.333252 388.999908,259.666504 388.999939,388.999878 
	C329.500000,389.000000 270.000000,389.000000 210.000000,389.000000 
M293.999115,253.935974 
	C293.999115,253.935974 294.148956,253.978485 294.189423,254.483032 
	C294.497314,254.874588 294.805237,255.266159 295.352173,256.335876 
	C296.843842,258.929016 298.707092,261.386322 299.719055,264.154816 
	C300.666443,266.746613 301.837036,270.238647 300.807648,272.268738 
	C299.942749,273.974304 296.055481,274.875061 293.501465,274.885040 
	C264.047211,275.000153 234.592026,274.876617 205.137100,274.818787 
	C201.553833,274.811768 197.970535,274.817841 193.648911,274.817841 
	C198.611526,265.755493 203.208694,257.360504 208.257523,248.434769 
	C216.839676,233.295319 225.421814,218.155869 234.566406,202.624313 
	C243.470245,187.002777 252.374084,171.381241 261.866028,155.323868 
	C265.050690,149.750946 268.346161,144.237717 271.389587,138.588699 
	C274.588226,132.651581 274.670319,126.736847 270.324921,120.457214 
	C269.219818,118.901047 267.969421,117.427193 267.033417,115.775208 
	C261.361633,105.764816 255.761566,95.713783 249.985794,85.014915 
	C248.335388,82.247566 246.684982,79.480217 244.871475,75.966255 
	C237.435883,63.016468 230.184479,49.956520 222.520248,37.143490 
	C211.818832,19.252888 185.352798,18.218788 173.945038,35.540249 
	C166.938446,46.179008 161.184845,57.642982 154.324081,69.163589 
	C146.226608,83.487862 138.129120,97.812134 129.496246,112.540863 
	C122.254082,125.332588 115.011917,138.124313 107.260941,151.347015 
	C97.647552,168.232498 88.034164,185.117981 77.914551,202.518204 
	C71.872246,213.211243 65.829933,223.904266 59.802505,234.624588 
	C59.802505,234.624588 59.801880,234.654526 59.319633,234.930420 
	C59.258099,235.279434 59.196564,235.628448 58.928871,236.651550 
	C56.620998,240.451675 54.313122,244.251801 51.556225,248.557617 
	C44.936398,260.223236 38.316570,271.888885 31.185434,284.024414 
	C24.290819,296.064575 17.396204,308.104706 10.482237,320.178650 
	C11.284059,320.578217 11.561922,320.837311 11.840557,320.838135 
	C22.989061,320.871429 34.137806,320.922760 45.286133,320.877197 
	C51.084751,320.853516 58.042213,322.589203 62.362423,320.001343 
	C66.895485,317.285980 69.070755,310.444092 71.964195,305.232269 
	C75.248238,299.316833 78.186012,293.209137 81.941971,287.025757 
	C88.282166,276.016541 94.622360,265.007355 101.561607,253.617630 
	C102.688774,253.356613 103.815941,253.095612 105.490791,252.969894 
	C105.672874,252.922913 105.854958,252.875946 106.967735,252.887558 
	C113.621468,252.813278 120.275208,252.739014 127.778259,252.857544 
	C129.511734,252.810776 131.245224,252.764008 133.844482,252.869537 
	C135.889572,252.818756 137.934677,252.767975 140.857529,252.870377 
	C143.228699,252.821320 145.599884,252.772247 148.722137,252.871887 
	C149.798752,253.573929 150.875351,254.275970 151.509949,255.495575 
	C146.133270,264.967010 140.756592,274.438446 135.017899,284.425507 
	C128.689545,295.624634 122.361176,306.823761 115.572990,318.380585 
	C115.388641,318.903168 115.204300,319.425720 114.830879,320.347443 
	C115.650154,320.401001 116.469429,320.454529 117.312958,320.585419 
	C117.312958,320.585419 117.393967,320.585876 118.100449,320.816925 
	C120.423759,320.753082 122.747078,320.689240 125.978264,320.804413 
	C192.800049,320.820404 259.621857,320.837219 326.443634,320.843018 
	C327.270721,320.843109 328.097839,320.701935 329.487549,320.827667 
	C330.269226,320.753204 331.050873,320.678772 332.625763,320.780731 
	C333.161102,320.720734 333.696472,320.660736 334.907776,320.822571 
	C337.203857,320.515778 339.553925,320.425110 341.787354,319.867371 
	C357.235840,316.009827 368.992218,298.450867 362.163116,282.255737 
	C356.361267,271.750549 350.559387,261.245331 344.647980,250.095978 
	C344.160828,249.384369 343.673676,248.672745 343.109222,247.331192 
	C342.408539,246.316360 341.707825,245.301529 340.635834,243.661224 
	C334.940002,233.585510 329.511719,223.342072 323.369781,213.546066 
	C321.731506,210.933075 317.908966,209.689590 314.645691,207.488632 
	C314.102203,207.437485 313.558685,207.386337 312.112671,207.091293 
	C307.738739,207.157608 303.364807,207.223907 298.061401,207.194931 
	C292.716980,207.236664 287.372559,207.278412 281.112030,207.107437 
	C276.073486,207.192139 271.034912,207.276825 265.264801,207.262878 
	C264.531006,207.312469 263.797211,207.362045 262.179962,207.198837 
	C260.086853,207.345062 257.993744,207.491287 255.674133,207.564331 
	C255.674133,207.564331 255.494797,207.948257 255.070847,208.538651 
	C247.041214,222.680466 239.011566,236.822281 230.508408,251.315094 
	C230.999252,251.795029 231.490082,252.274979 232.911469,252.855774 
	C237.624557,252.799316 242.337631,252.742844 247.973999,252.811569 
	C263.044434,252.850952 278.114899,252.890335 293.372864,253.301819 
	C293.541901,253.534286 293.763000,253.695251 293.999115,253.935974 
z"/>
<path fill="#1BD46D" opacity="1.000000" stroke="none" 
	d="
M361.944794,283.008026 
	C368.992218,298.450867 357.235840,316.009827 341.787354,319.867371 
	C339.553925,320.425110 337.203857,320.515778 334.359131,320.506073 
	C333.151184,320.327850 332.491852,320.466095 331.832550,320.604340 
	C331.050873,320.678772 330.269226,320.753204 328.996185,320.429260 
	C326.931427,319.687378 325.358246,319.044647 323.784576,319.043427 
	C259.184326,318.993164 194.584061,318.988678 129.983902,319.068756 
	C128.345413,319.070770 126.708191,320.083832 125.070389,320.625427 
	C122.747078,320.689240 120.423759,320.753082 117.621643,320.357025 
	C116.772827,319.272369 116.402817,318.647644 116.032806,318.022888 
	C122.361176,306.823761 128.689545,295.624634 135.656052,284.188507 
	C139.061478,283.938934 141.863220,283.650024 144.586517,283.989838 
	C147.434433,284.345184 150.210709,285.922729 153.011795,285.905518 
	C182.141037,285.726959 211.268555,285.129242 240.397385,285.071838 
	C260.517426,285.032196 280.656433,286.327698 300.754578,285.797852 
	C321.152893,285.260071 341.800781,289.160339 361.944794,283.008026 
z"/>
<path fill="#22D774" opacity="1.000000" stroke="none" 
	d="
M362.053955,282.631897 
	C341.800781,289.160339 321.152893,285.260071 300.754578,285.797852 
	C280.656433,286.327698 260.517426,285.032196 240.397385,285.071838 
	C211.268555,285.129242 182.141037,285.726959 153.011795,285.905518 
	C150.210709,285.922729 147.434433,284.345184 144.586517,283.989838 
	C141.863220,283.650024 139.061478,283.938934 135.837067,283.930695 
	C140.756592,274.438446 146.133270,264.967010 151.973358,254.988190 
	C153.924408,251.981522 155.412064,249.482239 157.374664,246.986526 
	C173.858185,246.990097 189.866776,246.990097 205.875366,246.990097 
	C205.935959,246.489563 205.996567,245.989044 206.057159,245.488510 
	C206.640060,246.647507 207.222961,247.806503 207.805878,248.965500 
	C203.208694,257.360504 198.611526,265.755493 193.648911,274.817841 
	C197.970535,274.817841 201.553833,274.811768 205.137100,274.818787 
	C234.592026,274.876617 264.047211,275.000153 293.501465,274.885040 
	C296.055481,274.875061 299.942749,273.974304 300.807648,272.268738 
	C301.837036,270.238647 300.666443,266.746613 299.719055,264.154816 
	C298.707092,261.386322 296.843842,258.929016 295.230469,255.712891 
	C295.073364,254.712128 295.037994,254.334381 295.134460,253.680405 
	C304.045074,252.602798 312.810547,251.563354 321.606598,251.071732 
	C329.305695,250.641434 337.039215,250.826767 344.757507,250.740143 
	C350.559387,261.245331 356.361267,271.750549 362.053955,282.631897 
z"/>
<path fill="#4AE19C" opacity="1.000000" stroke="none" 
	d="
M154.868591,68.736404 
	C161.184845,57.642982 166.938446,46.179008 173.945038,35.540249 
	C185.352798,18.218788 211.818832,19.252888 222.520248,37.143490 
	C230.184479,49.956520 237.435883,63.016468 244.453857,76.387878 
	C240.570328,77.205421 237.105804,77.929985 233.638321,77.944389 
	C209.495804,78.044724 185.352661,77.986977 161.209763,78.008072 
	C156.886414,78.011848 153.215881,77.626427 155.401886,71.641617 
	C155.693039,70.844490 155.068878,69.713036 154.868591,68.736404 
z"/>
<path fill="#43DF94" opacity="1.000000" stroke="none" 
	d="
M154.596329,68.949997 
	C155.068878,69.713036 155.693039,70.844490 155.401886,71.641617 
	C153.215881,77.626427 156.886414,78.011848 161.209763,78.008072 
	C185.352661,77.986977 209.495804,78.044724 233.638321,77.944389 
	C237.105804,77.929985 240.570328,77.205421 244.535400,76.761192 
	C246.684982,79.480217 248.335388,82.247566 250.018097,85.691650 
	C250.024277,86.599571 249.998154,86.830757 249.788681,87.206245 
	C249.365265,87.552521 249.151901,87.779602 248.982864,88.016205 
	C249.000488,88.000603 249.031387,87.965103 248.834381,88.122780 
	C248.413406,88.530777 248.189423,88.781097 247.980286,89.015198 
	C247.995132,88.998970 248.019028,88.962029 247.739120,89.147079 
	C238.613907,97.721924 229.789505,106.133980 220.901840,114.478645 
	C219.489807,115.804413 217.793045,116.826927 216.018723,117.705017 
	C211.722961,110.375801 207.639191,103.329590 203.549011,96.287102 
	C199.595657,89.480202 195.648514,89.530014 191.652023,96.402191 
	C186.560318,105.157692 181.440674,113.896965 176.212952,122.265411 
	C173.616211,115.541985 168.605927,113.783310 162.290543,113.968048 
	C152.838638,114.244537 143.379578,114.383354 133.924866,114.333733 
	C132.623306,114.326897 131.329193,112.903816 130.031647,112.136414 
	C138.129120,97.812134 146.226608,83.487862 154.596329,68.949997 
z"/>
<path fill="#29D87B" opacity="1.000000" stroke="none" 
	d="
M344.702759,250.418060 
	C337.039215,250.826767 329.305695,250.641434 321.606598,251.071732 
	C312.810547,251.563354 304.045074,252.602798 294.920776,253.675674 
	C294.575226,253.947159 294.148956,253.978485 294.148956,253.978485 
	C294.148956,253.978485 293.999115,253.935974 294.020111,253.576508 
	C294.016846,253.028839 293.992615,252.840668 293.688995,252.403992 
	C291.519196,251.771286 289.634277,251.090744 287.737335,251.055435 
	C280.488617,250.920532 273.236023,250.993301 265.999023,250.608032 
	C266.637482,248.546326 267.206848,246.842255 267.894836,245.187500 
	C272.909760,233.125275 277.948578,221.072968 283.449738,209.012360 
	C292.068329,209.007523 300.218475,209.091797 308.364838,208.953629 
	C310.612061,208.915497 312.848083,208.214310 315.089233,207.817352 
	C317.908966,209.689590 321.731506,210.933075 323.369781,213.546066 
	C329.511719,223.342072 334.940002,233.585510 340.831360,244.317001 
	C341.746735,245.968887 342.466644,246.965012 343.186523,247.961121 
	C343.673676,248.672745 344.160828,249.384369 344.702759,250.418060 
z"/>
<path fill="#2BD97D" opacity="1.000000" stroke="none" 
	d="
M208.031708,248.700134 
	C207.222961,247.806503 206.640060,246.647507 206.057159,245.488510 
	C205.996567,245.989044 205.935959,246.489563 205.875366,246.990097 
	C189.866776,246.990097 173.858185,246.990097 157.511505,246.662140 
	C164.475586,233.257019 171.777756,220.179871 179.284180,206.830460 
	C181.187088,203.821411 182.885742,201.084625 184.838959,198.581818 
	C187.021866,199.207550 188.947250,199.920517 190.879028,199.938187 
	C202.348648,200.043152 213.830246,200.263016 225.284256,199.826157 
	C228.980743,199.685150 231.652588,200.415817 234.003952,203.016418 
	C225.421814,218.155869 216.839676,233.295319 208.031708,248.700134 
z"/>
<path fill="#34DB85" opacity="1.000000" stroke="none" 
	d="
M78.420776,202.003479 
	C88.034164,185.117981 97.647552,168.232498 107.863373,151.177185 
	C117.554283,155.351959 127.109528,156.386536 137.135437,156.213943 
	C143.204483,156.109482 149.309814,158.113388 155.325989,159.453918 
	C154.731506,160.553497 154.209900,161.369171 153.547668,162.236816 
	C153.126404,162.460266 153.039352,162.708160 153.089432,163.384369 
	C145.999863,175.819336 138.966736,187.902405 131.529587,199.897583 
	C128.660248,199.539886 126.199951,199.102142 123.728821,199.028564 
	C111.291222,198.658295 98.851639,198.307419 86.410316,198.170471 
	C84.862450,198.153427 83.280014,199.406204 81.751152,200.147995 
	C80.609657,200.701843 79.528694,201.380432 78.420776,202.003479 
z"/>
<path fill="#34DB85" opacity="1.000000" stroke="none" 
	d="
M234.285187,202.820374 
	C231.652588,200.415817 228.980743,199.685150 225.284256,199.826157 
	C213.830246,200.263016 202.348648,200.043152 190.879028,199.938187 
	C188.947250,199.920517 187.021866,199.207550 184.971588,198.267670 
	C192.470261,184.483810 200.090866,171.248093 208.163696,158.011414 
	C220.368347,158.008057 232.121567,157.933701 243.872543,158.062210 
	C246.306168,158.088821 248.728409,158.887924 251.162048,159.294189 
	C252.366333,159.495239 253.584610,159.612488 254.796555,159.767639 
	C254.893509,158.385269 254.952286,156.998825 255.100006,155.621902 
	C255.209396,154.602249 255.112640,153.051224 255.685059,152.712463 
	C256.499664,152.230362 258.076172,152.263260 258.902222,152.769516 
	C259.921936,153.394485 260.505737,154.730789 261.277924,155.759705 
	C252.374084,171.381241 243.470245,187.002777 234.285187,202.820374 
z"/>
<path fill="#3BDD8D" opacity="1.000000" stroke="none" 
	d="
M155.398865,159.170044 
	C149.309814,158.113388 143.204483,156.109482 137.135437,156.213943 
	C127.109528,156.386536 117.554283,155.351959 108.117775,150.961700 
	C115.011917,138.124313 122.254082,125.332588 129.763947,112.338638 
	C131.329193,112.903816 132.623306,114.326897 133.924866,114.333733 
	C143.379578,114.383354 152.838638,114.244537 162.290543,113.968048 
	C168.605927,113.783310 173.616211,115.541985 176.235016,122.389191 
	C176.377213,122.890785 176.137299,122.965416 175.806885,123.124573 
	C175.016251,124.359497 174.556015,125.435257 174.034836,126.837433 
	C167.782196,137.832581 161.590530,148.501312 155.398865,159.170044 
M112.801979,150.107590 
	C113.034073,149.804810 113.273369,149.506729 113.481636,149.188385 
	C113.495140,149.167740 113.269928,148.990936 113.155762,148.886780 
	C112.945145,149.207214 112.734528,149.527634 112.801979,150.107590 
M157.525757,151.499741 
	C157.525757,151.499741 157.486008,151.514221 157.525757,151.499741 
z"/>
<path fill="#1BD46D" opacity="1.000000" stroke="none" 
	d="
M81.274323,287.185028 
	C78.186012,293.209137 75.248238,299.316833 71.964195,305.232269 
	C69.070755,310.444092 66.895485,317.285980 62.362423,320.001343 
	C58.042213,322.589203 51.084751,320.853516 45.286133,320.877197 
	C34.137806,320.922760 22.989061,320.871429 11.840557,320.838135 
	C11.561922,320.837311 11.284059,320.578217 10.482237,320.178650 
	C17.396204,308.104706 24.290819,296.064575 31.733879,284.038086 
	C34.933838,284.035004 37.615646,283.759247 40.229420,284.065063 
	C43.729931,284.474548 47.154930,285.721710 50.652500,285.927765 
	C60.849079,286.528473 71.065613,286.790344 81.274323,287.185028 
z"/>
<path fill="#2CDA7E" opacity="1.000000" stroke="none" 
	d="
M78.167664,202.260834 
	C79.528694,201.380432 80.609657,200.701843 81.751152,200.147995 
	C83.280014,199.406204 84.862450,198.153427 86.410316,198.170471 
	C98.851639,198.307419 111.291222,198.658295 123.728821,199.028564 
	C126.199951,199.102142 128.660248,199.539886 131.467102,200.233566 
	C130.681534,202.686340 129.554398,204.715240 128.164017,207.218018 
	C129.645004,207.564331 130.810059,207.836777 131.827057,208.343018 
	C131.119751,209.048599 130.560486,209.520355 129.742920,209.845367 
	C128.088364,210.602173 126.255409,211.201904 125.376373,212.465332 
	C122.547775,216.530838 120.232422,220.952927 117.412148,225.024887 
	C114.734520,228.890884 112.366272,233.626846 106.818245,233.775558 
	C91.145287,234.195679 75.465012,234.342667 59.787624,234.597290 
	C65.829933,223.904266 71.872246,213.211243 78.167664,202.260834 
z"/>
<path fill="#3BDD8C" opacity="1.000000" stroke="none" 
	d="
M261.571960,155.541779 
	C260.505737,154.730789 259.921936,153.394485 258.902222,152.769516 
	C258.076172,152.263260 256.499664,152.230362 255.685059,152.712463 
	C255.112640,153.051224 255.209396,154.602249 255.100006,155.621902 
	C254.952286,156.998825 254.893509,158.385269 254.796555,159.767639 
	C253.584610,159.612488 252.366333,159.495239 251.162048,159.294189 
	C248.728409,158.887924 246.306168,158.088821 243.872543,158.062210 
	C232.121567,157.933701 220.368347,158.008057 208.245834,157.660736 
	C209.572052,154.541016 211.268372,151.771011 213.154739,148.797989 
	C213.563339,148.091217 213.781906,147.587463 214.076538,146.739532 
	C215.208252,144.537125 216.364136,142.727753 217.298538,140.810425 
	C219.198380,136.912125 220.978592,132.955505 223.137634,128.927673 
	C225.243057,126.875748 227.018997,124.919090 229.165314,123.105713 
	C231.165298,123.300842 232.794907,123.396942 234.424515,123.397163 
	C243.070862,123.398369 251.741318,122.992340 260.352661,123.534172 
	C264.241394,123.778854 267.573334,123.917282 270.492706,121.110306 
	C274.670319,126.736847 274.588226,132.651581 271.389587,138.588699 
	C268.346161,144.237717 265.050690,149.750946 261.571960,155.541779 
z"/>
<path fill="#22D774" opacity="1.000000" stroke="none" 
	d="
M81.608154,287.105408 
	C71.065613,286.790344 60.849079,286.528473 50.652500,285.927765 
	C47.154930,285.721710 43.729931,284.474548 40.229420,284.065063 
	C37.615646,283.759247 34.933838,284.035004 31.989532,283.803162 
	C38.316570,271.888885 44.936398,260.223236 51.786552,248.713043 
	C51.702301,252.831848 53.794323,254.256882 57.451542,253.987778 
	C61.730518,253.672928 66.011703,253.008972 70.284500,253.064865 
	C80.512848,253.198685 90.736824,253.665680 100.962570,253.998169 
	C94.622360,265.007355 88.282166,276.016541 81.608154,287.105408 
z"/>
<path fill="#27D979" opacity="1.000000" stroke="none" 
	d="
M101.262085,253.807892 
	C90.736824,253.665680 80.512848,253.198685 70.284500,253.064865 
	C66.011703,253.008972 61.730518,253.672928 57.451542,253.987778 
	C53.794323,254.256882 51.702301,252.831848 52.011063,248.460205 
	C54.313122,244.251801 56.620998,240.451675 59.171249,236.109863 
	C59.577702,235.278366 59.707119,234.973816 59.801880,234.654526 
	C59.801880,234.654526 59.802505,234.624588 59.795063,234.610931 
	C75.465012,234.342667 91.145287,234.195679 106.818245,233.775558 
	C112.366272,233.626846 114.734520,228.890884 117.412148,225.024887 
	C120.232422,220.952927 122.547775,216.530838 125.376373,212.465332 
	C126.255409,211.201904 128.088364,210.602173 129.742081,210.253036 
	C129.579987,212.736725 129.422958,214.771484 128.696991,216.577591 
	C124.854332,226.137527 120.844200,235.630005 116.956505,245.172089 
	C116.310715,246.757141 115.982498,248.471573 115.260208,250.987762 
	C118.112244,250.987762 120.059715,250.987762 122.419708,250.992905 
	C124.203377,251.013870 125.574539,251.029678 126.935425,251.315430 
	C126.926414,251.945145 126.927673,252.304932 126.928940,252.664734 
	C120.275208,252.739014 113.621468,252.813278 106.382309,252.758911 
	C105.466873,252.529144 105.182274,252.597244 104.943108,252.834595 
	C103.815941,253.095612 102.688774,253.356613 101.262085,253.807892 
z"/>
<path fill="#40DE92" opacity="1.000000" stroke="none" 
	d="
M270.408813,120.783760 
	C267.573334,123.917282 264.241394,123.778854 260.352661,123.534172 
	C251.741318,122.992340 243.070862,123.398369 234.424515,123.397163 
	C232.794907,123.396942 231.165298,123.300842 229.288300,122.767456 
	C232.217590,116.906319 235.462326,111.565453 238.552216,106.136452 
	C241.785339,100.455765 244.869659,94.690392 248.019028,88.962029 
	C248.019028,88.962029 247.995132,88.998970 248.182098,88.862610 
	C248.589828,88.472534 248.810608,88.218819 249.031403,87.965103 
	C249.031387,87.965103 249.000488,88.000603 249.167786,87.871933 
	C249.563278,87.530998 249.775589,87.303894 249.972015,87.061943 
	C249.998154,86.830757 250.024277,86.599571 250.093979,86.022354 
	C255.761566,95.713783 261.361633,105.764816 267.033417,115.775208 
	C267.969421,117.427193 269.219818,118.901047 270.408813,120.783760 
z"/>
<path fill="#1E8E5B" opacity="1.000000" stroke="none" 
	d="
M179.079926,207.102692 
	C171.777756,220.179871 164.475586,233.257019 157.036560,246.658569 
	C155.412064,249.482239 153.924408,251.981522 152.194351,254.729401 
	C150.875351,254.275970 149.798752,253.573929 148.379700,252.437103 
	C152.778519,240.495178 157.388321,228.931442 162.309570,217.501801 
	C165.336044,210.472778 164.571671,209.019501 156.524399,209.073044 
	C154.386505,209.073990 152.673203,209.090546 150.670990,209.078033 
	C150.189529,209.029083 149.996979,209.009186 149.626068,208.778534 
	C148.606018,208.162949 147.764374,207.758133 147.383057,207.235504 
	C158.255569,207.112701 168.667755,207.107697 179.079926,207.102692 
z"/>
<path fill="#25BC6F" opacity="1.000000" stroke="none" 
	d="
M230.981934,250.964111 
	C239.011566,236.822281 247.041214,222.680466 255.367493,208.216782 
	C255.664154,207.894913 255.900635,207.637497 255.900635,207.637497 
	C257.993744,207.491287 260.086853,207.345062 262.622559,207.572845 
	C263.032898,208.302032 263.000641,208.657211 262.702759,209.218033 
	C260.733246,211.530228 258.834351,213.513260 257.394775,215.787140 
	C256.451569,217.277008 256.259644,219.222595 255.581726,220.903778 
	C252.620499,228.247299 249.528458,235.539047 246.649277,242.914154 
	C245.620300,245.549866 243.634735,248.426987 246.962036,251.274597 
	C247.002975,251.933609 247.026840,252.309998 247.050720,252.686386 
	C242.337631,252.742844 237.624557,252.799316 232.315887,252.584366 
	C231.474182,251.863342 231.228058,251.413712 230.981934,250.964111 
z"/>
<path fill="#18E06D" opacity="1.000000" stroke="none" 
	d="
M125.524323,320.714905 
	C126.708191,320.083832 128.345413,319.070770 129.983902,319.068756 
	C194.584061,318.988678 259.184326,318.993164 323.784576,319.043427 
	C325.358246,319.044647 326.931427,319.687378 328.714874,320.328796 
	C328.097839,320.701935 327.270721,320.843109 326.443634,320.843018 
	C259.621857,320.837219 192.800049,320.820404 125.524323,320.714905 
z"/>
<path fill="#209E61" opacity="1.000000" stroke="none" 
	d="
M156.948990,209.088654 
	C164.571671,209.019501 165.336044,210.472778 162.309570,217.501801 
	C157.388321,228.931442 152.778519,240.495178 148.004150,252.362762 
	C145.599884,252.772247 143.228699,252.821320 140.456970,252.442978 
	C143.190338,244.703201 146.491364,237.456741 149.409515,230.059250 
	C152.134094,223.152451 154.452042,216.085251 156.948990,209.088654 
z"/>
<path fill="#23B56B" opacity="1.000000" stroke="none" 
	d="
M149.804443,208.989304 
	C149.996979,209.009186 150.189529,209.029083 150.671448,209.458191 
	C150.463120,211.599945 150.148819,213.411880 149.438614,215.052444 
	C143.995316,227.626144 138.475052,240.166504 132.978699,252.717224 
	C131.245224,252.764008 129.511734,252.810776 127.353600,252.761139 
	C126.927673,252.304932 126.926414,251.945145 127.125839,251.019257 
	C130.131851,244.468567 133.124313,238.563080 135.695511,232.479523 
	C138.973236,224.724274 141.910385,216.825089 145.398163,208.981018 
	C147.136124,208.979172 148.470291,208.984238 149.804443,208.989304 
z"/>
<path fill="#22AA67" opacity="1.000000" stroke="none" 
	d="
M133.411591,252.793381 
	C138.475052,240.166504 143.995316,227.626144 149.438614,215.052444 
	C150.148819,213.411880 150.463120,211.599945 150.960342,209.487244 
	C152.673203,209.090546 154.386505,209.073990 156.524399,209.073044 
	C154.452042,216.085251 152.134094,223.152451 149.409515,230.059250 
	C146.491364,237.456741 143.190338,244.703201 140.018097,252.366394 
	C137.934677,252.767975 135.889572,252.818756 133.411591,252.793381 
z"/>
<path fill="#34DB85" opacity="1.000000" stroke="none" 
	d="
M247.512360,252.748978 
	C247.026840,252.309998 247.002975,251.933609 247.405060,251.281525 
	C249.881378,250.997116 251.931778,250.988419 254.443802,250.986389 
	C258.598602,250.991562 262.291748,250.990036 265.984894,250.988525 
	C273.236023,250.993301 280.488617,250.920532 287.737335,251.055435 
	C289.634277,251.090744 291.519196,251.771286 293.488403,252.460876 
	C293.567169,252.766251 293.185333,252.929703 293.185333,252.929703 
	C278.114899,252.890335 263.044434,252.850952 247.512360,252.748978 
z"/>
<path fill="#34DB85" opacity="1.000000" stroke="none" 
	d="
M262.968384,209.012375 
	C263.000641,208.657211 263.032898,208.302032 263.064270,207.679245 
	C263.797211,207.362045 264.531006,207.312469 265.997498,207.493164 
	C271.829498,207.589020 276.928802,207.454590 282.028137,207.320160 
	C287.372559,207.278412 292.716980,207.236664 298.894684,207.411896 
	C304.157043,207.530960 308.586121,207.433075 313.015198,207.335175 
	C313.558685,207.386337 314.102203,207.437485 314.867462,207.652985 
	C312.848083,208.214310 310.612061,208.915497 308.364838,208.953629 
	C300.218475,209.091797 292.068329,209.007523 282.987366,209.007233 
	C277.700562,209.005875 273.346008,209.004456 268.562561,208.999573 
	C266.411896,209.001541 264.690125,209.006958 262.968384,209.012375 
z"/>
<path fill="#22AA67" opacity="1.000000" stroke="none" 
	d="
M281.570068,207.213806 
	C276.928802,207.454590 271.829498,207.589020 266.363281,207.542480 
	C271.034912,207.276825 276.073486,207.192139 281.570068,207.213806 
z"/>
<path fill="#22AA67" opacity="1.000000" stroke="none" 
	d="
M312.563934,207.213226 
	C308.586121,207.433075 304.157043,207.530960 299.359436,207.459534 
	C303.364807,207.223907 307.738739,207.157608 312.563934,207.213226 
z"/>
<path fill="#22D774" opacity="1.000000" stroke="none" 
	d="
M343.147888,247.646149 
	C342.466644,246.965012 341.746735,245.968887 341.016998,244.629730 
	C341.707825,245.301529 342.408539,246.316360 343.147888,247.646149 
z"/>
<path fill="#18E06D" opacity="1.000000" stroke="none" 
	d="
M115.802902,318.201721 
	C116.402817,318.647644 116.772827,319.272369 117.268402,320.241516 
	C117.393967,320.585876 117.312958,320.585419 116.932724,320.408936 
	C116.041649,320.137726 115.530800,320.042999 115.019958,319.948303 
	C115.204300,319.425720 115.388641,318.903168 115.802902,318.201721 
z"/>
<path fill="#1BD46D" opacity="1.000000" stroke="none" 
	d="
M114.925415,320.147888 
	C115.530800,320.042999 116.041649,320.137726 116.920593,320.370239 
	C116.469429,320.454529 115.650154,320.401001 114.925415,320.147888 
z"/>
<path fill="#22AA67" opacity="1.000000" stroke="none" 
	d="
M230.745163,251.139587 
	C231.228058,251.413712 231.474182,251.863342 231.850616,252.533936 
	C231.490082,252.274979 230.999252,251.795029 230.745163,251.139587 
z"/>
<path fill="#25BC6F" opacity="1.000000" stroke="none" 
	d="
M294.169189,254.230759 
	C294.148956,253.978485 294.575226,253.947159 294.788910,253.951889 
	C295.037994,254.334381 295.073364,254.712128 295.110962,255.373810 
	C294.805237,255.266159 294.497314,254.874588 294.169189,254.230759 
z"/>
<path fill="#18E06D" opacity="1.000000" stroke="none" 
	d="
M332.229156,320.692535 
	C332.491852,320.466095 333.151184,320.327850 334.021149,320.395142 
	C333.696472,320.660736 333.161102,320.720734 332.229156,320.692535 
z"/>
<path fill="#25BC6F" opacity="1.000000" stroke="none" 
	d="
M293.279114,253.115753 
	C293.185333,252.929703 293.567169,252.766251 293.767761,252.709366 
	C293.992615,252.840668 294.016846,253.028839 294.038635,253.500854 
	C293.763000,253.695251 293.541901,253.534286 293.279114,253.115753 
z"/>
<path fill="#1E8E5B" opacity="1.000000" stroke="none" 
	d="
M105.216949,252.902237 
	C105.182274,252.597244 105.466873,252.529144 105.916969,252.729614 
	C105.854958,252.875946 105.672874,252.922913 105.216949,252.902237 
z"/>
<path fill="#2CDA7E" opacity="1.000000" stroke="none" 
	d="
M59.560757,234.792480 
	C59.707119,234.973816 59.577702,235.278366 59.274330,235.772827 
	C59.196564,235.628448 59.258099,235.279434 59.560757,234.792480 
z"/>
<path fill="#22AA67" opacity="1.000000" stroke="none" 
	d="
M255.787384,207.600922 
	C255.900635,207.637497 255.664154,207.894913 255.579468,207.921585 
	C255.494797,207.948257 255.674133,207.564331 255.787384,207.600922 
z"/>
<path fill="#000000" opacity="0" stroke="none" 
	d="
M179.284180,206.830444 
	C168.667755,207.107697 158.255569,207.112701 146.939148,207.200256 
	C143.064926,207.286362 140.094986,207.289917 136.866425,207.234207 
	C136.353043,207.406845 136.098267,207.638748 135.456543,207.903076 
	C134.038101,207.993393 133.006607,208.051300 131.975113,208.109207 
	C130.810059,207.836777 129.645004,207.564331 128.164017,207.218018 
	C129.554398,204.715240 130.681534,202.686340 131.871155,200.321442 
	C138.966736,187.902405 145.999863,175.819336 153.286896,163.212067 
	C153.589966,162.520187 153.639130,162.352524 153.688293,162.184860 
	C154.209900,161.369171 154.731506,160.553497 155.325989,159.453918 
	C161.590530,148.501312 167.782196,137.832581 174.291382,126.598328 
	C175.118362,125.010338 175.627838,123.987877 176.137299,122.965424 
	C176.137299,122.965416 176.377213,122.890785 176.355133,122.767006 
	C181.440674,113.896965 186.560318,105.157692 191.652023,96.402191 
	C195.648514,89.530014 199.595657,89.480202 203.549011,96.287102 
	C207.639191,103.329590 211.722961,110.375801 216.133179,118.016251 
	C218.573914,122.082397 220.691010,125.552666 222.808121,129.022934 
	C220.978592,132.955505 219.198380,136.912125 217.298538,140.810425 
	C216.364136,142.727753 215.208252,144.537125 213.858887,146.918884 
	C213.365036,147.961945 213.164871,148.481476 212.964706,149.001007 
	C211.268372,151.771011 209.572052,154.541016 207.793594,157.661697 
	C200.090866,171.248093 192.470261,184.483810 184.717026,198.033676 
	C182.885742,201.084625 181.187088,203.821411 179.284180,206.830444 
z"/>
<path fill="#2DBD6F" opacity="1.000000" stroke="none" 
	d="
M223.137634,128.927673 
	C220.691010,125.552666 218.573914,122.082397 216.342377,118.300888 
	C217.793045,116.826927 219.489807,115.804413 220.901840,114.478645 
	C229.789505,106.133980 238.613907,97.721924 247.739120,89.147079 
	C244.869659,94.690392 241.785339,100.455765 238.552216,106.136452 
	C235.462326,111.565453 232.217590,116.906319 228.917923,122.624184 
	C227.018997,124.919090 225.243057,126.875748 223.137634,128.927673 
z"/>
<path fill="#2DBD6F" opacity="1.000000" stroke="none" 
	d="
M248.834396,88.122787 
	C248.810608,88.218819 248.589828,88.472534 248.167236,88.878830 
	C248.189423,88.781097 248.413406,88.530777 248.834396,88.122787 
z"/>
<path fill="#2DBD6F" opacity="1.000000" stroke="none" 
	d="
M249.788681,87.206245 
	C249.775589,87.303894 249.563278,87.530998 249.150177,87.887527 
	C249.151901,87.779602 249.365265,87.552521 249.788681,87.206245 
z"/>
<path fill="#27D178" opacity="1.000000" stroke="none" 
	d="
M268.991455,209.003036 
	C273.346008,209.004456 277.700562,209.005875 282.517487,209.012405 
	C277.948578,221.072968 272.909760,233.125275 267.894836,245.187500 
	C267.206848,246.842255 266.637482,248.546326 265.999023,250.608032 
	C262.291748,250.990036 258.598602,250.991562 254.449493,250.571564 
	C254.647507,247.463562 255.023987,244.670959 256.003510,242.108917 
	C260.236572,231.036819 264.646118,220.032211 268.991455,209.003036 
z"/>
<path fill="#3BDD8D" opacity="1.000000" stroke="none" 
	d="
M153.547668,162.236816 
	C153.639130,162.352524 153.589966,162.520187 153.343353,162.860153 
	C153.039352,162.708160 153.126404,162.460266 153.547668,162.236816 
z"/>
<path fill="#34DB85" opacity="1.000000" stroke="none" 
	d="
M112.662949,149.977814 
	C112.734528,149.527634 112.945145,149.207214 113.155762,148.886780 
	C113.269928,148.990936 113.495140,149.167740 113.481636,149.188385 
	C113.273369,149.506729 113.034073,149.804810 112.662949,149.977814 
z"/>
<path fill="#43DF94" opacity="1.000000" stroke="none" 
	d="
M175.806900,123.124580 
	C175.627838,123.987877 175.118362,125.010338 174.352341,126.271912 
	C174.556015,125.435257 175.016251,124.359497 175.806900,123.124580 
z"/>
<path fill="#34DB85" opacity="1.000000" stroke="none" 
	d="
M157.505890,151.506989 
	C157.486008,151.514221 157.525757,151.499741 157.505890,151.506989 
z"/>
<path fill="#26C974" opacity="1.000000" stroke="none" 
	d="
M131.827057,208.343018 
	C133.006607,208.051300 134.038101,207.993393 135.746338,207.935501 
	C136.616272,207.958252 136.809448,207.980988 136.998566,208.269012 
	C136.997055,208.711166 136.999603,208.888031 136.999847,209.463013 
	C135.147827,215.277054 133.398529,220.729874 131.425186,226.100388 
	C128.366104,234.425674 125.154259,242.694809 122.007187,250.987762 
	C120.059715,250.987762 118.112244,250.987762 115.260208,250.987762 
	C115.982498,248.471573 116.310715,246.757141 116.956505,245.172089 
	C120.844200,235.630005 124.854332,226.137527 128.696991,216.577591 
	C129.422958,214.771484 129.579987,212.736725 130.000381,210.399796 
	C130.560486,209.520355 131.119751,209.048599 131.827057,208.343018 
z"/>
<path fill="#34DB85" opacity="1.000000" stroke="none" 
	d="
M213.154739,148.797989 
	C213.164871,148.481476 213.365036,147.961945 213.782837,147.263062 
	C213.781906,147.587463 213.563339,148.091217 213.154739,148.797989 
z"/>
<path fill="#25C170" opacity="1.000000" stroke="none" 
	d="
M122.419701,250.992905 
	C125.154259,242.694809 128.366104,234.425674 131.425186,226.100388 
	C133.398529,220.729874 135.147827,215.277054 137.443481,209.446365 
	C140.257736,209.017044 142.626038,209.002487 144.994339,208.987946 
	C141.910385,216.825089 138.973236,224.724274 135.695511,232.479523 
	C133.124313,238.563080 130.131851,244.468567 127.136116,250.749329 
	C125.574539,251.029678 124.203377,251.013870 122.419701,250.992905 
z"/>
<path fill="#2CDA7E" opacity="1.000000" stroke="none" 
	d="
M145.398163,208.981018 
	C142.626038,209.002487 140.257736,209.017044 137.445801,209.048248 
	C136.999603,208.888031 136.997055,208.711166 137.047668,208.094635 
	C137.100830,207.654953 137.125031,207.293488 137.125031,207.293488 
	C140.094986,207.289917 143.064926,207.286362 146.478790,207.318054 
	C147.764374,207.758133 148.606018,208.162949 149.626068,208.778534 
	C148.470291,208.984238 147.136124,208.979172 145.398163,208.981018 
z"/>
<path fill="#26C974" opacity="1.000000" stroke="none" 
	d="
M268.562561,208.999573 
	C264.646118,220.032211 260.236572,231.036819 256.003510,242.108917 
	C255.023987,244.670959 254.647507,247.463562 253.987854,250.564880 
	C251.931778,250.988419 249.881378,250.997116 247.387970,250.998901 
	C243.634735,248.426987 245.620300,245.549866 246.649277,242.914154 
	C249.528458,235.539047 252.620499,228.247299 255.581726,220.903778 
	C256.259644,219.222595 256.451569,217.277008 257.394775,215.787140 
	C258.834351,213.513260 260.733246,211.530228 262.702759,209.218033 
	C264.690125,209.006958 266.411896,209.001541 268.562561,208.999573 
z"/>
<path fill="#1E8E5B" opacity="1.000000" stroke="none" 
	d="
M136.866425,207.234222 
	C137.125031,207.293488 137.100830,207.654953 137.051727,207.829346 
	C136.809448,207.980988 136.616272,207.958252 136.133286,207.903076 
	C136.098267,207.638748 136.353043,207.406845 136.866425,207.234222 
z"/>
</svg>